<svg width="401" height="176" viewBox="0 0 401 176" fill="none" xmlns="http://www.w3.org/2000/svg">
<path d="M0 64H16.0369V80H0V64ZM16.0369 48H32.0737V64H16.0369V48ZM32.0737 64H48.1106V80H32.0737V64ZM96.2212 48H112.258V64H96.2212V48ZM80.1843 64H96.2212V80H80.1843V64ZM80.1843 80H96.2212V96H80.1843V80ZM80.1843 96H96.2212V112H80.1843V96ZM80.1843 112H96.2212V128H80.1843V112ZM32.0737 80H48.1106V96H32.0737V80ZM32.0737 112H48.1106V128H32.0737V112ZM32.0737 96H48.1106V112H32.0737V96ZM64.1475 128H80.1843V144H64.1475V128ZM48.1106 128H64.1475V144H48.1106V128ZM16.0369 128H32.0737V144H16.0369V128ZM48.1106 48H64.1475V64H48.1106V48ZM64.1475 48H80.1843V64H64.1475V48Z" fill="white"/>
<path d="M144.3 48H160.337V64H144.3V48ZM144.3 160H160.337V176H144.3V160ZM176.374 128H192.411V144H176.374V128ZM160.337 48H176.374V64H160.337V48ZM176.374 64H192.411V80H176.374V64ZM128.264 64H144.3V80H128.264V64ZM128.264 144H144.3V160H128.264V144ZM176.374 112H192.411V128H176.374V112ZM176.374 80H192.411V96H176.374V80ZM160.337 96H176.374V112H160.337V96ZM144.3 96H160.337V112H144.3V96ZM176.374 144H192.411V160H176.374V144ZM160.337 160H176.374V176H160.337V160Z" fill="white"/>
<path d="M208.479 128H224.516V144H208.479V128ZM224.516 112H240.553V128H224.516V112ZM224.516 96H240.553V112H224.516V96ZM224.516 80H240.553V96H224.516V80ZM224.516 64H240.553V80H224.516V64ZM240.553 48H256.59V64H240.553V48ZM256.59 32H272.627V48H256.59V32ZM240.553 16H256.59V32H240.553V16ZM224.516 0H240.553V16H224.516V0ZM272.627 48H288.664V64H272.627V48ZM272.627 64H288.664V80H272.627V64ZM272.627 80H288.664V96H272.627V80ZM272.627 96H288.664V112H272.627V96ZM272.627 112H288.664V128H272.627V112ZM240.553 128H256.59V144H240.553V128ZM256.59 128H272.627V144H256.59V128Z" fill="white"/>
<path d="M304.779 144H320.816V160H304.779V144ZM320.816 144H336.853V160H320.816V144ZM336.853 144H352.889V160H336.853V144ZM352.889 144H368.926V160H352.889V144ZM368.926 144H384.963V160H368.926V144ZM384.963 144H401V160H384.963V144Z" fill="white"/>
</svg>
